<svg width="7148" height="7149" xmlns="http://www.w3.org/2000/svg" xmlns:xlink="http://www.w3.org/1999/xlink" xml:space="preserve" overflow="hidden"><defs><clipPath id="clip0"><rect x="-2934" y="-3320" width="7148" height="7149"></rect></clipPath></defs><g clip-path="url(#clip0)" transform="translate(2934 3320)"><path d="M4457.75 1308.61C4443.63 1307.42 4429.35 1307.7 4415.15 1307.54 4403.07 1307.39 4390.99 1307.54 4378.82 1307.54L4378.82 1351.69C4395.11 1351.69 4410.79 1351.85 4426.47 1351.69 4437.5 1351.54 4448.65 1352.97 4459.54 1350.38 4471.96 1347.4 4478.6 1338.94 4477.84 1327.91 4477.08 1316.88 4470.36 1309.66 4457.75 1308.61Z" fill="#00FF00" fill-rule="nonzero" fill-opacity="1" transform="matrix(1 0 0 1.00014 -2934 -3320)"></path><path d="M4452.23 1291.95C4464.14 1291.62 4470.91 1284.04 4471.29 1273.3 4471.67 1262.55 4465.98 1255.98 4452.99 1254.24 4431.71 1251.45 4410.27 1253.62 4388.9 1253.12 4385.49 1253.12 4381.75 1252.04 4378.72 1255.5L4378.72 1292.1C4404.03 1292.14 4428.14 1292.6 4452.23 1291.95Z" fill="#00FF00" fill-rule="nonzero" fill-opacity="1" transform="matrix(1 0 0 1.00014 -2934 -3320)"></path><path d="M2955.44 1271.63C2953.62 1262.93 2948.76 1255.59 2939.35 1254.95 2912.62 1253.09 2885.86 1253.93 2858.63 1254.5L2858.63 1299.29C2884.38 1299.29 2908.85 1299.41 2933.3 1299.29 2938.09 1299.07 2942.7 1297.41 2946.52 1294.53 2954.17 1289.66 2957.78 1280.39 2955.44 1271.63Z" fill="#00FF00" fill-rule="nonzero" fill-opacity="1" transform="matrix(1 0 0 1.00014 -2934 -3320)"></path><path d="M3468.14 805.913C3451.82 839.652 3454.03 885.304 3473.98 925.666 3491.75 961.644 3502.97 970.103 3515.46 956.95 3518.65 953.591 3547.72 916.969 3580.08 875.535 3622.96 820.59 3638.93 798.646 3638.95 794.381 3638.95 778.512 3586.18 752.756 3553.18 752.637 3517.06 752.955 3484.18 773.55 3468.14 805.913Z" fill="#00FF00" fill-rule="nonzero" fill-opacity="1" transform="matrix(1 0 0 1.00014 -2934 -3320)"></path><path d="M0 0 0 5232.34C11.1509 5233.17 13.9386 5223 19.0613 5216.85 116.894 5099.84 214.583 4982.7 312.129 4865.41L1286.4 3695.66C1292.48 3688.37 1298.48 3681.01 1305.15 3672.88 1291.26 3612.58 1278.94 3552.01 1255.86 3494.18 1251.67 3483.01 1246.02 3472.44 1239.06 3462.75 1224.45 3443.29 1209.18 3439.4 1187.02 3449.41 1175.55 3454.91 1164.78 3461.78 1154.95 3469.85 1138.68 3482.55 1122.86 3495.85 1106.44 3508.36 1060.24 3543.53 1007.27 3535.35 973.558 3488.18 941.749 3443.62 942.583 3382.29 975.583 3333.9 996.789 3302.92 1025.95 3281.19 1059.36 3265.21 1206.3 3194.87 1409.25 3208.31 1551.14 3342.98 1617.04 3405.52 1659.29 3482.05 1680.16 3569.57 1742.02 3828.95 1802.34 4088.8 1863.25 4348.37 1878.86 4414.83 1894.52 4481.26 1910.23 4547.68 1911.11 4551.44 1912.19 4555.16 1913.54 4560.33L2468.54 4560.33C2474.92 4553.85 2475.69 4544.84 2478.33 4536.69 2532.2 4365.62 2584.55 4194.04 2640.14 4023.51 2699.13 3842.43 2786.86 3677.12 2920.41 3539.07 3039.54 3416.05 3180.76 3331.13 3350.55 3300.09 3530.44 3267.16 3700.35 3293.61 3853.63 3398.06 3948.77 3462.92 4014.63 3550.17 4043.24 3663.3 4053.11 3702.66 4057.05 3743.27 4054.94 3783.79 4051.82 3848.46 4007.96 3902.93 3944.27 3920.94 3907.67 3931.35 3870.4 3931.54 3833.4 3923.7 3785.41 3913.55 3752.94 3884.6 3734.64 3839.29 3722.25 3808.62 3718.7 3776.38 3716.91 3743.76 3714.42 3700.95 3706.94 3658.57 3694.63 3617.48 3630.47 3399.47 3374.57 3355.08 3226.92 3501.19 3193.85 3533.92 3167.49 3571.43 3145.02 3611.86 3103.83 3686.23 3070.15 3764.52 3044.5 3845.58 2977.4 4056.59 2910.79 4267.75 2844.67 4479.08 2836.35 4505.43 2828.25 4531.81 2819.36 4560.42L3547.05 4560.42C3594.34 4410 3641.61 4259.62 3688.87 4109.29L4036.74 4109.29 3896.4 4557.56C3915.79 4563.16 4265.71 4565.26 4322.04 4560.4 4323.18 4558.41 4324.42 4556.47 4325.75 4554.61 4452.04 4385.87 4614.06 4260.61 4800.5 4165.38 4980.56 4073.38 5171.79 4017.65 5372.34 3994.47 5493.38 3980.44 5614.71 3977.08 5735.91 3993.16 5830.39 4005.72 5921.35 4030.11 6003.6 4079.91 6098.91 4137.6 6167.87 4217.08 6197.29 4326.4 6220.02 4410.84 6212.33 4494.83 6187.48 4577.75 6178.4 4608.08 6167.7 4637.84 6151.43 4667.05L4520.94 4667.05C4510.39 4696.43 4507.22 4725.59 4504.67 4754.59 4499.8 4808.46 4503.22 4862.77 4514.82 4915.61 4528.26 4976.77 4560.09 5026.85 4605.05 5069.27 4667.52 5128.14 4742.1 5166.24 4822.37 5193.97 4954.78 5239.7 5091.62 5253.68 5230.79 5247.28 5378.66 5240.77 5524.31 5208.93 5661.41 5153.14 5902.06 5055.3 6121.12 4920.02 6332.06 4766.67L6561.15 4028.59 6908.4 4028.59C6873.47 4148.15 6835.42 4265.28 6799.08 4387.2 6811.38 4380.39 6816.64 4371.84 6822.91 4364.69 6876.59 4303.95 6931.77 4244.7 6993.84 4192.3 7037.61 4155.47 7084.06 4121.97 7132.82 4092.06 7137.09 4089.44 7141.14 4081.79 7147.95 4088.49L7147.95 0ZM2329.15 1366.2C2323.46 1368.41 2318.05 1367.51 2311.66 1366.94L2311.66 1238.99C2317.29 1237.2 2322.74 1237.96 2329.15 1238.51ZM2426.34 1366.96 2406.99 1366.96C2386.6 1324.83 2366.08 1282.4 2344.73 1238.3L2365.99 1238.3 2416.88 1345.21C2433.99 1308.16 2450.07 1273.32 2466.25 1238.34L2487.5 1238.34ZM2625.94 1366.75 2503.04 1366.75 2503.04 1238.49 2620.93 1238.49C2623.55 1243.25 2622.79 1248.21 2621.24 1254.14L2522.05 1254.14 2522.05 1291.93 2618.31 1291.93C2620.73 1297.15 2620.81 1303.16 2618.53 1308.44L2521.89 1308.44 2521.89 1350.66 2626.03 1350.66C2627.78 1355.89 2627.75 1361.54 2625.94 1366.75ZM3880.62 1238.61 3998.85 1238.61C4001.24 1243.37 3999.95 1248.33 3999.64 1254.4L3900.23 1254.4C3898.35 1267.13 3899.35 1278.78 3899.5 1292L3996.42 1292C3998.35 1297.31 3998.29 1303.13 3996.23 1308.39L3899.97 1308.39 3899.97 1350.59 4004.02 1350.59C4006.41 1356.67 4005.48 1361.27 4005.12 1366.67L3880.62 1366.67ZM3866.07 1366.7 3762.52 1366.7 3762.52 1238.72C3768.59 1237.5 3774.85 1237.6 3780.89 1239.01L3780.89 1350.28 3864.47 1350.28C3868.31 1356 3866.92 1360.96 3866.07 1366.7ZM3339.62 783.611 3348.55 783.611C3349.64 783.572 3350.72 783.453 3351.79 783.254 3364.35 781.78 3375.61 774.795 3382.5 764.193 3386.25 758.398 3388.29 751.671 3388.41 744.774L3388.41 553.517C3388.07 547.995 3386.49 542.62 3383.79 537.792 3377.38 525.164 3362.35 513.965 3348.72 513.965L3339.78 513.965 3339.78 505.34 3345.17 505.34C3365.59 505.53 3393.42 490.734 3404.14 478.559 3407.74 474.611 3410.75 470.165 3413.07 465.359 3413.07 464.572 3408 464.525 3402.69 463.143 3384.79 458.377 3372.85 437.696 3377 420.255 3381.27 402.218 3395.32 390.4 3413.19 390.543 3437.78 390.734 3453.94 410.843 3450.01 435.123 3446.22 458.473 3425.66 483.062 3394.54 497.62L3374.95 506.793 3596.92 506.793 3596.92 513.822 3583.53 513.822C3574 513.822 3572.28 515.99 3568.5 518.587 3565.89 520.928 3564.2 524.121 3563.73 527.594 3563.73 531.954 3616.96 638.173 3618.41 636.72 3619.87 635.267 3670.14 570.935 3692.54 541.914 3698.91 533.324 3705.83 525.15 3713.24 517.444 3722.23 508.485 3729.54 504.077 3739.21 501.361 3763.04 494.642 3789.25 503.172 3801.83 518.301 3813.12 531.978 3817.32 542.128 3817.46 559.974 3817.63 581.585 3815.08 585.826 3776.65 635.028 3759.97 656.472 3717.75 710.44 3683.05 754.9 3648.36 799.361 3596.35 865.98 3567.5 902.912 3538.64 939.843 3515.08 972.009 3515.08 974.558 3515.08 984.47 3543.67 1003.15 3570.9 1011.11 3629.3 1028.03 3680.81 1000.2 3695.42 943.822 3699.21 929.216 3699.97 898.337 3696.87 885.018 3695.83 880.443 3694.49 875.725 3695.35 876.011L3740.62 888.806C3741.5 889.044 3740.62 895.549 3739.02 902.363 3730.76 939.319 3707.33 974.296 3674.69 998.576 3638.83 1025.14 3598.9 1037.03 3552.53 1034.03 3526.82 1032.36 3513.98 1029.26 3491.01 1018.04 3457.04 1001.38 3431.38 971.511 3420.03 935.411 3413.43 913.967 3413.46 879.704 3420.03 857.903 3425.8 838.961 3436.88 817.398 3448.46 803.459 3451.91 799.589 3454.97 795.391 3457.61 790.926L3339.86 790.926ZM3716.96 1355 3714.98 1353.02C3691.75 1370.08 3665.83 1374.08 3638.28 1367.32 3605.31 1359.38 3584.6 1330.12 3586.84 1295.84 3588.87 1264.86 3614.58 1239.44 3648.55 1235.51 3671.43 1232.86 3693.82 1234.82 3713.79 1247.64 3721.51 1252.59 3728.33 1258.5 3732.42 1267.55 3727.66 1272.32 3721.13 1272.18 3715.55 1274.27 3695.18 1250.14 3669.81 1246.28 3641.88 1254.74 3622.49 1260.62 3609.88 1273.8 3607.57 1294.38 3605.19 1315.61 3612.67 1333.24 3631.23 1345.04 3651.22 1357.76 3681.74 1356.64 3700.95 1342.8 3709.91 1336.32 3716.32 1328.22 3716.75 1315.04L3663.25 1315.04C3659.32 1309.39 3660.68 1304.75 3661.18 1299.39L3732.92 1299.39 3732.92 1366.1C3728.16 1368.48 3723.58 1366.94 3718.63 1367.03 3718.01 1362.48 3717.51 1358.67 3717.01 1354.83ZM3560.99 1238.51 3560.99 1365.84C3556.23 1369.29 3550.46 1366.44 3544.48 1368.22L3442.72 1261.74 3442.72 1366.15C3436.4 1368.34 3431.35 1367.7 3425.35 1366.96L3425.35 1238.39 3444.76 1238.39 3544.17 1343.01 3544.17 1239.39C3549.86 1237.06 3554.94 1237.96 3560.87 1238.51ZM3393.42 1238.7 3393.42 1366.67C3387.64 1367.9 3381.66 1367.9 3375.88 1366.67L3375.88 1238.99C3381.15 1237.18 3386.87 1237.77 3393.3 1238.7ZM3331.75 1325.81C3330.49 1316.69 3323.61 1312.87 3315.41 1310.94 3296.35 1306.46 3276.88 1306.75 3257.68 1304.22 3236.4 1301.44 3224.32 1291.29 3223.27 1274.68 3222.27 1260.19 3228.04 1248.47 3241.36 1243.01 3273.33 1230.03 3305.28 1230.17 3336.07 1247.35 3341.7 1250.35 3346.16 1255.16 3348.72 1261L3332.95 1267.7C3313.07 1250.35 3289.56 1247.18 3264.3 1252.31 3261.2 1252.92 3258.16 1253.83 3255.22 1255.02 3247.31 1258.36 3241.76 1263.79 3242.64 1272.96 3243.57 1282.49 3251.05 1286.14 3259.18 1287.26 3275.26 1289.43 3291.46 1290.6 3307.62 1292.33 3312.33 1292.83 3317.01 1293.63 3321.63 1294.72 3338.88 1298.82 3349.03 1309.01 3350.67 1323.31 3352.58 1340.18 3345.26 1354.67 3329.66 1362.24 3310.48 1371.58 3289.87 1371.77 3269.19 1369.39 3250.39 1367.22 3232.61 1362.24 3219.15 1347.95 3217.3 1345.67 3215.6 1343.29 3214.05 1340.8L3230.16 1333.65C3252.82 1353.62 3279.41 1357.19 3307.9 1351.69 3312.54 1350.7 3316.97 1348.96 3321.03 1346.52 3328.59 1341.97 3332.9 1334.98 3331.64 1325.81ZM2791.77 1363.41C2773.33 1372.03 2754.01 1371.32 2734.73 1366.86 2717.29 1362.84 2706.61 1351.73 2702.61 1334.2 2707.16 1330 2712.9 1330.34 2718.12 1329.22 2733.13 1352.83 2751.48 1360 2775.88 1351.9 2787.6 1347.99 2794.65 1338.61 2793.53 1328.34 2792.34 1317.23 2784.55 1310.06 2771.52 1309.28 2762.89 1308.68 2754.2 1309.16 2746.09 1309.16 2743.67 1304.95 2743.15 1299.9 2744.67 1295.29 2753.77 1294.41 2762.77 1293.91 2771.64 1292.5 2780.5 1291.1 2787.58 1286.74 2788.15 1276.75 2788.72 1266.39 2783.07 1259.74 2773.61 1256.07 2752.48 1247.85 2733.61 1255.83 2722.98 1277.75L2708.45 1274.82C2709.83 1257.57 2720.1 1245.52 2737.3 1241.06 2750.79 1237.46 2764.99 1237.46 2778.48 1241.06 2792.03 1244.73 2803.54 1251.38 2807.07 1266.34 2810.57 1280.64 2805.3 1291.6 2791.44 1299.96 2800.44 1304.72 2807.31 1309.73 2810.74 1318.09 2817.91 1335.39 2809.97 1354.83 2791.65 1363.41ZM2963.75 1366.63 2920.86 1316.59 2858.46 1316.59 2858.46 1367.17 2840.02 1367.17 2840.02 1238.27C2874 1238.27 2907.69 1237.41 2941.28 1238.58 2960.99 1239.27 2973.69 1252.62 2975.62 1270.22 2978 1292.86 2969.49 1304.56 2942.47 1313.42L2988.72 1366.63ZM3004.26 1367.67 3004.26 1238.65C3032.85 1238.65 3061.08 1236.56 3088.84 1239.2 3119.41 1242.13 3138.59 1266.58 3139.95 1298.1 3141.33 1330.15 3123.94 1355.88 3094.68 1363.39 3065.42 1370.89 3034.85 1366.32 3004.23 1367.65ZM4067.47 1579.45C4067.47 1583 4067.14 1586.59 4066.9 1590.95L3087.94 1590.95 3087.94 1533.53 4067.59 1533.53C4067.5 1549.19 4067.52 1564.32 4067.45 1579.45ZM4204.52 1367.05C4196.85 1358.14 4194.21 1345.61 4186.7 1335.65L4108.84 1335.65 4092.33 1366.96 4071.05 1366.96C4093.71 1323.43 4115.79 1281.04 4137.76 1238.77 4144.86 1237.6 4152.09 1237.51 4159.21 1238.51L4225.56 1367.17ZM4343.84 1367.05 4241.03 1367.05 4241.03 1239.15C4246.17 1236.46 4251.96 1238.7 4259.06 1237.72L4259.06 1350.52 4343.82 1350.52C4345.79 1355.85 4345.79 1361.72 4343.82 1367.05ZM4468.48 1365.34C4432.74 1369.96 4396.69 1366.6 4359.9 1367.56L4359.9 1238.27C4393.04 1238.27 4425.49 1237.13 4457.83 1238.68 4481.27 1239.77 4493.21 1255.14 4491.18 1275.99 4490.18 1285.83 4484.46 1292.38 4476.03 1298.12 4490.33 1305.06 4497.97 1315.18 4497.69 1330.77 4497.28 1348.97 4486.56 1363 4468.45 1365.27ZM4655.87 1328.57C4655.25 1344.61 4645.7 1356.86 4630.47 1362.86 4605.69 1373.19 4577.85 1373.45 4552.87 1363.58 4535.98 1357 4524.76 1344.82 4524.11 1326.57 4523.09 1297.58 4523.83 1268.51 4523.83 1238.61 4530.45 1237.84 4535.88 1237.2 4542.41 1239.22 4542.41 1263.05 4542.41 1286.93 4542.41 1310.85 4542.41 1338.56 4550.49 1348.16 4578.15 1352.9 4590.31 1354.95 4602.78 1354.19 4614.61 1350.69 4630.21 1346.16 4637.34 1336.7 4637.43 1320.28 4637.62 1293.24 4637.43 1266.17 4637.43 1239.27 4644.44 1237.01 4650.2 1237.99 4656.18 1238.37 4656.18 1268.89 4656.99 1298.77 4655.85 1328.57ZM4843.84 1365.94C4838.72 1368.56 4833.43 1367.84 4827.16 1366.32L4827.16 1265.46 4824.45 1264.55C4808.05 1298.51 4791.66 1332.46 4775.39 1366.13 4769.38 1368.39 4763.93 1367.51 4757.52 1367.01L4706.72 1263.74 4705.43 1264.91C4705.43 1265.2 4705.27 1265.41 4704.93 1265.39L4704.93 1365.91C4699.98 1368.6 4694.66 1367.77 4688.52 1366.46L4688.52 1238.68 4714.25 1238.68 4766.38 1345.71C4784.56 1308.44 4801.67 1273.39 4818.8 1238.3L4843.79 1238.3Z" fill="#00FF00" fill-rule="nonzero" fill-opacity="1" transform="matrix(1 0 0 1.00014 -2934 -3320)"></path><path d="M3670.59 737.864C3679.96 741.653 3685.46 739.175 3696.16 726.308 3724.39 692.379 3777.17 622.853 3780.89 614.585 3800.88 570.529 3752.29 523.496 3707.64 543.724 3695.33 549.324 3692.01 552.85 3659.08 595.428 3631.42 631.168 3626.59 640.937 3629.35 655.519 3631.18 664.907 3666.92 736.387 3670.59 737.864Z" fill="#00FF00" fill-rule="nonzero" fill-opacity="1" transform="matrix(1 0 0 1.00014 -2934 -3320)"></path><path d="M3120.17 1301.87C3120.32 1277.4 3107.64 1258.33 3086.65 1255.26 3065.66 1252.19 3044.93 1254.05 3023.39 1254.45L3023.39 1350.97C3044.12 1351.35 3063.89 1352.64 3083.46 1348.88 3106.14 1344.61 3120.03 1326.38 3120.17 1301.87Z" fill="#00FF00" fill-rule="nonzero" fill-opacity="1" transform="matrix(1 0 0 1.00014 -2934 -3320)"></path><path d="M621.376 6788.41 621.519 6788.41 621.328 6788.22C621.328 6788.22 621.352 6788.22 621.376 6788.41Z" fill="#000200" fill-rule="nonzero" fill-opacity="1" transform="matrix(1 0 0 1.00014 -2934 -3320)"></path><path d="M7132.87 4092.06C7084.11 4121.97 7037.65 4155.47 6993.89 4192.3 6931.82 4244.72 6876.64 4303.95 6822.96 4364.69 6816.64 4371.84 6811.38 4380.39 6799.13 4387.2 6835.47 4265.28 6873.52 4148.15 6908.45 4028.59L6561.15 4028.59 6332.06 4766.67C6121.12 4920.02 5901.96 5055.3 5661.41 5153.14 5524.31 5208.93 5378.66 5240.77 5230.79 5247.28 5091.52 5253.68 4954.78 5239.7 4822.37 5193.97 4742.1 5166.24 4667.5 5128.14 4605.05 5069.27 4560.07 5026.85 4528.26 4976.77 4514.82 4915.61 4503.22 4862.77 4499.8 4808.46 4504.67 4754.59 4507.22 4725.59 4510.39 4696.43 4520.94 4667.05L6151.38 4667.05C6167.65 4637.84 6178.35 4608.08 6187.43 4577.75 6212.28 4494.83 6219.98 4410.96 6197.24 4326.4 6167.82 4217.08 6098.84 4137.6 6003.56 4079.91 5921.31 4030.11 5830.34 4005.72 5735.86 3993.16 5614.66 3977.08 5493.33 3980.44 5372.29 3994.47 5171.72 4017.7 4980.49 4073.38 4800.45 4165.38 4614.06 4260.68 4451.99 4385.87 4325.71 4554.61 4324.37 4556.47 4323.13 4558.41 4321.99 4560.4 4265.76 4565.17 3915.75 4563.16 3896.35 4557.56L4036.69 4109.29 3688.82 4109.29C3641.58 4259.59 3594.31 4409.97 3547 4560.42L2819.41 4560.42C2828.3 4531.83 2836.4 4505.43 2844.71 4479.08 2911.24 4267.82 2977.85 4056.65 3044.55 3845.58 3070.2 3764.52 3103.88 3686.23 3145.07 3611.86 3167.54 3571.36 3193.89 3533.92 3226.96 3501.19 3374.69 3355.08 3630.52 3399.47 3694.68 3617.48 3706.99 3658.57 3714.47 3700.95 3716.96 3743.76 3718.75 3776.38 3722.3 3808.62 3734.69 3839.29 3752.99 3884.56 3785.46 3913.55 3833.45 3923.7 3870.48 3931.54 3907.72 3931.35 3944.31 3920.94 4008 3902.83 4051.87 3848.46 4054.99 3783.79 4057.1 3743.27 4053.16 3702.66 4043.29 3663.3 4014.7 3550.17 3948.82 3462.92 3853.68 3398.06 3700.4 3293.61 3530.49 3267.16 3350.6 3300.09 3180.81 3331.06 3039.47 3416.05 2920.46 3539.07 2787.03 3677.12 2699.18 3842.48 2640.19 4023.51 2584.6 4194.04 2532.25 4365.62 2478.38 4536.69 2475.8 4544.84 2474.97 4553.85 2468.59 4560.33L1913.59 4560.33C1912.23 4555.16 1911.21 4551.44 1910.28 4547.68 1894.6 4481.26 1878.92 4414.83 1863.25 4348.37 1802.3 4088.66 1741.97 3828.95 1680.11 3569.64 1659.24 3482.12 1617 3405.59 1551.09 3343.05 1409.2 3208.38 1206.25 3194.94 1059.31 3265.28 1025.95 3281.27 996.741 3302.88 975.535 3333.97 942.488 3382.36 941.701 3443.57 973.51 3488.25 1007.22 3535.42 1060.19 3543.6 1106.39 3508.43 1122.81 3495.92 1138.63 3482.62 1154.9 3469.92 1164.73 3461.85 1175.5 3454.98 1186.97 3449.48 1209.13 3439.47 1224.4 3443.36 1239.01 3462.82 1245.97 3472.51 1251.62 3483.08 1255.81 3494.25 1278.8 3551.98 1291.21 3612.55 1305.11 3672.95 1298.43 3681.08 1292.43 3688.44 1286.35 3695.73L312.129 4865.41C214.472 4982.6 116.782 5099.72 19.0613 5216.75 13.9386 5222.9 11.1509 5233.07 0 5232.24L0 5646.82C54.8013 5637.29 109.221 5627.22 164.547 5621.43 272.795 5610.12 381.982 5611.26 489.972 5624.81 683.182 5648.85 865.218 5710.27 1041.2 5791.6 1044.78 5793.24 1048.18 5795.24 1051.04 5796.77 1053.14 5802.13 1050.11 5804.99 1047.56 5807.94 842.177 6045.18 654.614 6296.39 468.575 6548.78 329.173 6737.84 192.416 6928.84 58.3038 7121.79 52.514 7130.06 44.6035 7137.3 42.888 7148L395.523 7148C424.115 7101.73 460.736 7062.22 499.169 7024.36 565.423 6959.03 642.385 6905.53 726.713 6866.2 821.067 6821.91 918.184 6813.62 1019.23 6835.99 1112.16 6856.55 1199.15 6892.39 1284.88 6932.25 1393.53 6982.79 1499.1 7039.47 1606.13 7093.22 1633.79 7107.11 1661.74 7120.38 1689.26 7134.51 1696.7 7138.33 1706.13 7139.47 1710.71 7148L2644.71 7148C2645.17 7146.16 2645.48 7144.29 2645.64 7142.4 2643 7140.02 2639.23 7139.47 2635.66 7138.64 2465.18 7099.11 2302.08 7037.33 2139.94 6972.95 1967.51 6904.52 1797.46 6830.18 1623.69 6765.01 1523.48 6727.41 1422.45 6691.79 1317.61 6669.54 1109.94 6625.53 909.202 6643.33 717.469 6738.63 687.566 6753.48 659.641 6771.63 631.383 6789.24 627.904 6791.62 624.807 6789.98 621.852 6788.38L621.709 6788.38 621.971 6788.67C622.305 6788.67 622.448 6788.98 622.424 6789.17L624.092 6790.98 622.067 6789.41 621.828 6789.41 621.542 6789.41C621.161 6790.48 619.493 6789 621.542 6789.41 621.558 6789.31 621.558 6789.22 621.542 6789.12L621.042 6788.74C621.161 6788.58 621.288 6788.43 621.423 6788.29L621.757 6788.43 628.643 6785.55C630.592 6781.27 632.812 6777.13 635.29 6773.13 837.007 6489.6 1047.9 6213.21 1278.8 5952.64 1286.59 5943.85 1293.1 5933.58 1303.65 5927.62 1312.75 5929.55 1319.9 5934.77 1327.48 5939.06 1411.03 5986.43 1494.54 6033.85 1578.02 6081.33 1674.35 6136.01 1774.47 6181.66 1882.85 6206.97 1975.3 6228.55 2068.2 6234.25 2160.86 6208.82 2329.6 6162.53 2423.22 6024.55 2444.66 5883.54 2450.17 5847.25 2451.41 5810.85 2445.4 5774.44 2443.62 5764.28 2444.3 5753.83 2447.4 5743.99 2558.91 5389.77 2670.26 5035.54 2781.45 4681.32 2782.64 4677.6 2784.07 4673.93 2785.91 4668.81L3509.67 4668.81C3513.93 4677.6 3507.98 4685.49 3505.55 4693.16 3422.84 4957.3 3339.97 5221.47 3256.94 5485.66 3233.42 5560.6 3209.29 5635.39 3186.65 5710.56 3158.06 5805.22 3153.29 5900.86 3178.19 5997.22 3183.81 6018.73 3191.89 6039.52 3202.28 6059.17 3246.6 6143.59 3318.58 6181.95 3411.81 6183.38 3492.97 6184.62 3568.4 6161.77 3640.55 6126.36 3669 6112.42 3695.68 6095.39 3724.2 6078.71 3728.71 6089.88 3722.65 6098.27 3720.1 6106.51 3651.67 6327.83 3583.05 6549.12 3514.22 6770.37 3475.25 6896.24 3436.41 7022.12 3397.68 7148L3745.55 7148 3926.21 6564.48C4022.99 6525.36 4119.03 6483.96 4214.34 6440.28 4232.69 6449.81 4246.58 6464.1 4260.92 6477.59 4341.05 6552.79 4397.57 6644.09 4440.77 6744.16 4494 6867.49 4524.9 6996.72 4542.24 7129.63 4543.05 7135.68 4545.79 7142.09 4541.36 7148L4922.59 7148C4910.27 7108.45 4891.11 7071.75 4873.08 7034.85 4798.9 6882.71 4709.39 6740.73 4592.78 6617.09 4512.58 6532.06 4422.09 6460.43 4316.51 6408.94 4312.53 6406.99 4307.55 6406.13 4305.05 6400.2 4771.6 6182.3 5206.72 5917.4 5576.8 5551.23 5556.07 5545.75 5092.78 5543.96 5049.54 5548.44 5041.75 5560.05 5033.43 5572.53 5025 5584.97 4922.4 5736.2 4801.48 5871.63 4668.43 5996.43 4518.49 6137.01 4356.78 6262.24 4177.36 6363.58 4116.65 6398.17 4053.62 6428.5 3988.7 6454.36 3980.08 6457.77 3971.69 6462.36 3957.97 6462.86 4070.14 6101.2 4181.65 5741.63 4293.92 5380.01L3948.08 5380.01C3941.17 5387.38 3940.19 5398.07 3937.21 5407.63 3890.69 5556.94 3844.32 5706.26 3798.11 5855.57 3791.98 5876.11 3784.56 5896.24 3775.91 5915.85 3744.38 5985.4 3691.25 6020.24 3602.47 6011.85 3598.52 6011.49 3594.63 6010.66 3590.7 6010.04 3538.9 6001.79 3509 5970.99 3502.54 5918.42 3496.94 5872.77 3503.85 5828.07 3514.46 5783.9 3534.38 5701.24 3562.68 5621.07 3588.01 5540.03 3676.77 5255.96 3765.81 4971.97 3855.13 4688.06 3857.01 4682.04 3859.11 4676.15 3861.56 4668.67L4250.18 4668.67C4249.82 4680.1 4243.17 4688.4 4238.98 4697.26 4197.02 4785.94 4171.05 4878.68 4170.33 4977.22 4169.5 5088.3 4199.21 5189.14 4276.46 5272.29 4327.69 5327.45 4390.99 5364.88 4459.76 5393.67 4536.48 5425.76 4617.01 5443.89 4699 5454.83 4795.15 5467.36 4892.28 5470.55 4989.04 5464.36 5107.65 5457.21 5223.11 5431.96 5336.46 5396.64 5492.52 5348.01 5639.2 5277.77 5783.02 5201.27 5951.28 5111.74 6114.08 5012.28 6270.54 4903.43 6276.32 4899.43 6280.88 4891.23 6290.05 4894.04L6290.05 4893.93C6288.86 4893.26 6289 4892.5 6290.5 4891.71 6290.64 4891.71 6291.26 4892.31 6291.48 4892.71L6291.72 4893.19C6292.17 4893.54 6292.27 4894.14 6291.72 4893.19 6291.36 4892.88 6290.72 4892.73 6290.05 4893.93 6290.16 4893.97 6290.28 4894.03 6290.38 4894.09L6290.38 4894.09 6290.55 4894.09 6289.91 4893.9C6291.05 4905.43 6285.5 4915.35 6282.28 4925.85 6229.74 5095.64 6177.13 5265.4 6124.45 5435.12 6121.67 5444.08 6117.45 5452.85 6117.66 5462.5 6134.56 5467.67 6432.06 5469.12 6461.65 5464.31 6467.22 5457.4 6468.27 5448.49 6470.82 5440.29 6548.74 5189.5 6625.96 4938.51 6704.61 4687.94 6741.42 4570.69 6796.99 4463.33 6884.17 4374.79 6942.83 4315.22 7007.02 4262.07 7078.83 4218.82 7100.27 4205.91 7122.03 4192.37 7147.71 4188.51L7147.71 4088.44C7141.19 4081.79 7137.13 4089.44 7132.87 4092.06ZM4570.22 4536.6C4623.68 4436.29 4700.48 4357.33 4793.76 4293.57 4891.9 4226.56 5000.55 4182.99 5114.2 4150.8 5218.49 4121.27 5324.52 4102.28 5433.24 4101.31 5521.23 4100.52 5607.68 4110 5689.36 4145.67 5761.22 4177.03 5817.4 4224.94 5846.09 4300.07 5860.72 4338.38 5863.34 4379.1 5864.86 4419.54 5866.16 4461.66 5861.85 4503.76 5852.04 4544.75 5850.78 4550.13 5850.04 4555.71 5844.63 4560.95L4562.21 4560.95C4559.66 4550.49 4566.36 4543.75 4570.22 4536.6ZM1333.84 3794.02C1394.6 4052.7 1453.88 4305.12 1513.11 4557.42 1493.74 4563.21 724.593 4564 697.478 4558.02ZM1167.24 5677.35C1158.38 5677.35 1151.42 5671.53 1143.8 5667.82 1012.87 5603.06 881.253 5540.08 742.558 5493.05 590.901 5441.53 435.766 5406.27 276.389 5391 195.727 5383.52 114.623 5382.01 33.7386 5386.47 27.4721 5386.8 21.1581 5388.85 9.50684 5384.09L606.103 4667.86 1539.01 4667.86C1593.48 4899.6 1648 5131.6 1703.08 5365.98 1500.17 5429.38 1324.24 5536.77 1167.24 5677.35ZM2269.16 5912.4C2245.33 5989.48 2191.58 6033.91 2112.33 6047.3 2056.34 6056.83 2001.54 6047.76 1947.23 6034.91 1856.43 6013.47 1770.63 5977.97 1685.81 5939.94 1599.6 5901.27 1515.3 5858.69 1431.29 5815.49 1426.53 5812.99 1421.09 5811.2 1416.21 5804.29 1433.13 5787.33 1450.14 5769.75 1467.75 5752.78 1546.21 5677.11 1635.63 5619.35 1742.16 5592.26 1884.07 5556.09 2017.93 5575.27 2140.9 5656.88 2187.17 5687.57 2225.22 5726.74 2251.07 5776.58 2273.4 5819.62 2283.74 5865.22 2269.16 5912.4ZM2201.92 5417.09C2169.01 5396.95 2137.73 5380.32 2102.68 5367.34L1938.51 4668.57 2437.04 4668.57Z" fill="#000200" fill-rule="nonzero" fill-opacity="1" transform="matrix(1 0 0 1.00014 -2934 -3320)"></path><path d="M6884.45 4374.84C6797.27 4463.38 6741.71 4570.74 6704.9 4687.99 6626.27 4938.55 6549.02 5189.54 6471.11 5440.34 6468.56 5448.54 6467.51 5457.45 6461.94 5464.36 6432.34 5469.12 6134.84 5467.72 6117.95 5462.55 6117.73 5453.02 6121.95 5444.13 6124.74 5435.17 6177.25 5265.42 6229.86 5095.66 6282.57 4925.9 6285.78 4915.46 6291.34 4905.48 6290.19 4893.95 6281.02 4891.14 6276.47 4899.33 6270.68 4903.34 6114.22 5012.19 5951.43 5111.64 5783.16 5201.17 5639.34 5277.65 5492.67 5347.9 5336.6 5396.55 5223.26 5431.86 5107.87 5457.05 4989.18 5464.26 4892.42 5470.46 4795.29 5467.27 4699.14 5454.73 4617.04 5443.8 4536.62 5425.67 4459.9 5393.57 4391.14 5364.79 4327.83 5327.36 4276.6 5272.2 4199.35 5189.04 4169.64 5088.21 4170.48 4977.13 4171.19 4878.58 4197.16 4785.85 4239.12 4697.17 4243.31 4688.28 4249.96 4679.99 4250.32 4668.57L3861.71 4668.57C3859.32 4675.98 3857.16 4681.94 3855.27 4687.97 3766.16 4971.93 3677.12 5255.92 3588.15 5539.94 3562.83 5620.95 3534.52 5701.15 3514.6 5783.8 3503.95 5827.98 3497.04 5872.68 3502.69 5918.33 3509.12 5970.89 3539.02 6001.72 3590.85 6009.94 3594.78 6010.56 3598.66 6011.4 3602.62 6011.75 3691.39 6020.14 3744.53 5985.31 3776.05 5915.76 3784.71 5896.15 3792.12 5876.01 3798.26 5855.47 3844.56 5706.16 3890.93 5556.85 3937.36 5407.53 3940.33 5398 3941.31 5387.28 3948.22 5379.92L4293.9 5379.92C4181.72 5741.54 4070.21 6101.1 3957.94 6462.77 3971.67 6462.27 3980.05 6457.67 3988.68 6454.26 4053.59 6428.41 4116.63 6398.08 4177.34 6363.48 4356.75 6262.15 4518.47 6137.01 4668.41 5996.34 4801.45 5871.53 4922.37 5736.1 5024.97 5584.88 5033.41 5572.44 5041.65 5559.95 5049.51 5548.35 5092.76 5543.87 5556.04 5545.66 5576.77 5551.14 5206.7 5917.3 4771.58 6182.21 4305.03 6400.1 4307.41 6406.04 4312.51 6406.9 4316.49 6408.85 4422.06 6460.34 4512.56 6531.96 4592.76 6617 4709.36 6740.64 4798.88 6882.62 4873.05 7034.75 4891.09 7071.73 4910.25 7108.35 4922.57 7147.9L5194.19 7147.9C5233.09 7021.26 5272.01 6894.62 5310.94 6767.99 5433.79 6369.99 5556.7 5972 5679.68 5574.01 5682.23 5565.74 5684.99 5557.52 5687.35 5550.18 5695.74 5544.56 5703.91 5546.63 5711.63 5546.63 6190.41 5546.54 6669.19 5546.54 7147.98 5546.63L7147.98 4188.51C7122.29 4192.37 7100.56 4205.91 7079.09 4218.82 7007.42 4262.11 6943.09 4315.25 6884.45 4374.84Z" fill="#00FF00" fill-rule="nonzero" fill-opacity="1" transform="matrix(1 0 0 1.00014 -2934 -3320)"></path><path d="M3720.18 6106.63C3722.73 6098.39 3728.78 6089.95 3724.27 6078.83 3695.68 6095.39 3669.07 6112.47 3640.62 6126.48 3568.4 6161.89 3492.89 6184.74 3411.88 6183.5 3318.65 6182.07 3246.67 6143.71 3202.35 6059.29 3191.96 6039.64 3183.88 6018.85 3178.26 5997.34 3153.36 5900.98 3158.15 5805.34 3186.72 5710.68 3209.43 5635.51 3233.49 5560.72 3257.01 5485.78 3339.93 5221.56 3422.79 4957.33 3505.59 4693.09 3507.98 4685.35 3513.98 4677.53 3509.72 4668.74L2785.77 4668.74C2783.93 4673.86 2782.5 4677.53 2781.31 4681.25 2670.01 5035.47 2558.66 5389.69 2447.26 5743.92 2444.16 5753.76 2443.47 5764.21 2445.26 5774.37 2451.26 5810.78 2450.02 5847.18 2444.52 5883.47 2423.08 6024.48 2329.46 6162.46 2160.72 6208.75 2068.06 6234.18 1975.16 6228.48 1882.71 6206.89 1774.32 6181.59 1674.2 6135.94 1577.87 6081.26 1494.34 6033.86 1410.82 5986.43 1327.34 5938.99 1319.81 5934.72 1312.66 5929.46 1303.51 5927.55 1293.05 5933.58 1286.45 5943.78 1278.66 5952.57 1047.75 6213.21 836.864 6489.53 635.147 6773.06 632.669 6777.06 630.449 6781.2 628.5 6785.48L621.614 6788.36C624.688 6789.96 627.785 6791.53 631.145 6789.22 659.403 6771.61 687.328 6753.48 717.23 6738.61 908.963 6643.3 1109.7 6625.6 1317.38 6669.51 1422.38 6691.77 1523.31 6727.39 1623.57 6764.99 1797.34 6830.15 1967.39 6904.49 2139.83 6972.92 2302.04 7037.25 2465.06 7099.08 2635.54 7138.61 2639.11 7139.45 2642.88 7139.92 2645.52 7142.38 2646.35 7143.13 2647.03 7144.04 2647.52 7145.05 2647.71 7145.45 2645.62 7146.98 2644.59 7147.98L3025.82 7147.98C3024.1 7146.83 3021.05 7145.74 3023.79 7143.33 3026.81 7140.88 3030.19 7138.89 3033.8 7137.44 3117.2 7102.01 3169.61 7038.44 3199.78 6954.6 3208.34 6930.7 3214.9 6906.13 3219.39 6881.14 3221.77 6867.77 3222.39 6854.34 3218.34 6841.09 3210.88 6816.62 3192.84 6808.8 3170.45 6820.74 3153.08 6830.01 3141.5 6845.11 3131.35 6861.44 3124.2 6872.87 3118.05 6885.05 3109.9 6895.65 3082.36 6931.39 3040.5 6944.42 2997.28 6931.13 2913.31 6905.3 2852.96 6795.32 2937.07 6706.49 3006.93 6632.63 3115.22 6606.28 3202.97 6643.02 3278.05 6674.47 3321.15 6733.34 3334.9 6811.62 3355.8 6930.75 3327.51 7038.25 3249.27 7131.61L3235.66 7148 3397.68 7148C3436.54 7022.15 3475.41 6896.31 3514.29 6770.49 3582.91 6549.19 3651.54 6327.9 3720.18 6106.63ZM2637.61 6956.15 2291.48 6956.15C2453.87 6429.72 2616.22 5904.22 2778.55 5379.63L3122.48 5379.63C3121.91 5397.62 2653.74 6919.5 2637.61 6956.15Z" fill="#00FF00" fill-rule="nonzero" fill-opacity="1" transform="matrix(1 0 0 1.00014 -2934 -3320)"></path><path d="M6028.15 5676.42 5995.81 5676.42 5850.97 6145.64C5851.61 6147.3 5852.41 6148.89 5853.35 6150.4 5854 6150.89 5854.75 6151.21 5855.55 6151.33 5857.07 6151.66 5858.64 6151.88 5860.31 6152.09 5861.1 6152.09 5861.91 6152.09 5862.69 6152.09L5869.84 6152.09 6732.37 6152.09C6733.96 6152.09 6735.56 6152.24 6737.13 6152.35 6737.94 6152.42 6738.74 6152.56 6739.52 6152.78 6740.28 6153 6741.02 6153.33 6744.83 6154.81 6737.68 6188.86 6724.65 6221.52 6715.24 6257.05L5820.28 6257.05C5812.25 6265.75 5811.25 6274.68 5808.73 6282.85 5723.17 6561.28 5637.71 6839.72 5552.35 7118.19 5549.45 7127.72 5543.23 7136.92 5546.85 7147.79L6433.2 7147.79C6431.79 7136.87 6440.9 7139.71 6445.92 7138.87 6479.59 7133.44 6513.07 7126.96 6546.28 7119.34 6648.74 7095.51 6747.52 7061.91 6838.73 7008.45 6878.57 6985.1 6915.79 6958.17 6948.33 6925.05 6965.22 6908.24 6979.83 6889.28 6991.77 6868.66 6999.38 6855.61 7004.89 6841.45 7008.09 6826.7 7015.36 6791.36 6999.58 6763.49 6965.2 6752.5 6951.69 6748.21 6937.4 6746.4 6923.39 6743.76 6903.83 6740.29 6884.89 6734.02 6867.13 6725.12 6818.52 6700.11 6787.34 6662.48 6785.88 6605.8 6784.33 6546.47 6811.38 6501.94 6862.13 6472.37 6899.44 6450.64 6940.16 6447.76 6982.02 6456.55 7057.51 6472.44 7111.38 6513.73 7138.61 6587.6 7142.4 6597.89 7140.68 6609.76 7148.29 6618.74L7148.29 5675.51C7137.99 5675.85 7127.68 5676.44 7117.31 5676.44 6754.22 5676.44 6391.17 5676.43 6028.15 5676.42Z" fill="#00FF00" fill-rule="nonzero" fill-opacity="1" transform="matrix(1 0 0 1.00014 -2934 -3320)"></path><path d="M468.551 6548.74C654.614 6296.34 842.177 6045.13 1047.54 5807.89 1050.09 5804.94 1053.11 5802.08 1051.02 5796.72 1048.16 5795.19 1044.75 5793.19 1041.18 5791.55 865.194 5710.3 683.158 5648.87 489.948 5624.76 381.958 5611.21 272.771 5610.08 164.523 5621.38 109.221 5627.24 54.8013 5637.39 0 5646.92L0 7148 42.888 7148C44.6035 7137.25 52.4187 7130.01 58.3038 7121.79 192.861 6929.19 329.61 6738.17 468.551 6548.74Z" fill="#00FF00" fill-rule="nonzero" fill-opacity="1" transform="matrix(1 0 0 1.00014 -2934 -3320)"></path><path d="M5711.66 5546.85C5703.94 5546.85 5695.76 5544.77 5687.38 5550.4 5684.99 5557.69 5682.25 5565.91 5679.71 5574.22 5556.79 5972.15 5433.88 6370.1 5310.96 6768.08 5271.89 6894.67 5232.97 7021.31 5194.21 7148L5546.85 7148C5543.23 7137.13 5549.45 7127.91 5552.35 7118.41 5637.65 6839.89 5723.11 6561.44 5808.73 6283.07 5811.25 6274.9 5812.25 6265.96 5820.28 6257.26L6715.12 6257.26C6724.53 6221.79 6737.59 6189.07 6744.71 6155.02 6740.9 6153.55 6740.16 6153.21 6739.4 6153 6738.62 6152.78 6737.82 6152.63 6737.01 6152.57 6735.44 6152.57 6733.84 6152.31 6732.25 6152.31L5869.72 6152.31 5862.58 6152.31C5861.79 6152.31 5860.98 6152.31 5860.19 6152.31 5858.64 6152.09 5857.07 6151.88 5855.43 6151.54 5854.63 6151.42 5853.88 6151.1 5853.24 6150.62 5852.29 6149.11 5851.49 6147.51 5850.85 6145.85L5995.69 5676.63 6028.15 5676.63C6391.09 5676.63 6754.05 5676.63 7117.02 5676.63 7127.32 5676.63 7137.63 5676.04 7148 5675.7L7148 5547.04C6669.23 5546.82 6190.45 5546.75 5711.66 5546.85Z" fill="#000200" fill-rule="nonzero" fill-opacity="1" transform="matrix(1 0 0 1.00014 -2934 -3320)"></path><path d="M4542.24 7129.63C4524.9 6996.8 4494 6867.54 4440.77 6744.16 4397.57 6644.09 4341.05 6552.79 4260.92 6477.59 4246.63 6464.13 4232.69 6449.88 4214.34 6440.28 4119.03 6483.97 4022.99 6525.38 3926.21 6564.48L3745.55 7148 4541.36 7148C4545.79 7142.09 4543.05 7135.68 4542.24 7129.63Z" fill="#00FF00" fill-rule="nonzero" fill-opacity="1" transform="matrix(1 0 0 1.00014 -2934 -3320)"></path><path d="M1689.31 7134.51C1661.79 7120.38 1633.84 7107.11 1606.18 7093.22 1499.15 7039.47 1393.57 6982.79 1284.92 6932.25 1199.15 6892.39 1112.09 6856.55 1019.28 6835.99 918.232 6813.62 821.115 6821.91 726.761 6866.2 642.424 6905.53 565.454 6959.03 499.192 7024.36 460.736 7062.22 424.115 7101.73 395.523 7148L643.32 7148C619.922 7077.31 640.651 7022.48 705.484 6985.03 740.032 6965.06 777.083 6955.79 817.207 6960.94 863.335 6966.85 896.288 6991.05 917.136 7032.25 931.432 7060.44 935.745 7090.91 937.627 7121.93 938.151 7130.61 938.389 7139.3 938.771 7148L1710.75 7148C1706.16 7139.47 1696.72 7138.33 1689.31 7134.51Z" fill="#00FF00" fill-rule="nonzero" fill-opacity="1" transform="matrix(1 0 0 1.00014 -2934 -3320)"></path><path d="M6981.74 6456.86C6939.87 6448.07 6899.15 6450.95 6861.84 6472.68 6811.19 6502.15 6784.14 6546.69 6785.6 6606.11 6787.05 6662.79 6818.24 6700.42 6866.85 6725.43 6884.6 6734.33 6903.55 6740.6 6923.1 6744.07 6937.11 6746.71 6951.41 6748.52 6964.92 6752.81 6999.39 6763.79 7015.17 6791.67 7007.8 6827.01 7004.6 6841.76 6999.09 6855.92 6991.48 6868.97 6979.54 6889.59 6964.94 6908.55 6948.05 6925.36 6915.59 6958.48 6878.38 6985.41 6838.44 7008.76 6747.24 7062.22 6648.5 7095.91 6546 7119.65 6512.78 7127.34 6479.28 7133.75 6445.64 7139.18 6440.61 7140.02 6431.51 7137.18 6432.91 7148.1L6861.79 7148.1C6905.87 7116.95 6949.95 7085.74 6988.38 7047.57 7054.84 6981.76 7106.4 6906.61 7135.54 6816.93 7140.3 6801.97 7140.3 6785.79 7147.71 6771.66L7147.71 6619.17C7140.11 6610.18 7141.83 6598.32 7138.04 6588.03 7111.09 6514.21 7057.22 6472.75 6981.74 6456.86Z" fill="#000200" fill-rule="nonzero" fill-opacity="1" transform="matrix(1 0 0 1.00014 -2934 -3320)"></path><path d="M3335.07 6811.64C3321.32 6733.37 3278.22 6674.49 3203.14 6643.04 3115.38 6606.3 3007.09 6632.75 2937.23 6706.52 2853.12 6795.34 2913.41 6905.32 2997.44 6931.15 3040.66 6944.45 3082.53 6931.51 3110.07 6895.68 3118.22 6885.07 3124.37 6872.9 3131.51 6861.46 3141.67 6845.14 3153.24 6830.03 3170.61 6820.76 3193.01 6808.85 3211.12 6816.64 3218.51 6841.11 3222.56 6854.36 3221.96 6867.8 3219.55 6881.17 3215.07 6906.15 3208.51 6930.72 3199.95 6954.62 3169.83 7038.47 3117.41 7102.04 3033.97 7137.47 3030.36 7138.92 3026.98 7140.9 3023.96 7143.35 3021.15 7145.74 3024.27 7146.86 3025.99 7148L3235.66 7148 3249.43 7131.63C3327.68 7038.4 3355.96 6930.75 3335.07 6811.64Z" fill="#000200" fill-rule="nonzero" fill-opacity="1" transform="matrix(1 0 0 1.00014 -2934 -3320)"></path><path d="M917.136 7032.25C896.288 6991.05 863.335 6966.85 817.207 6960.94 777.083 6955.79 740.032 6965.06 705.484 6985.03 640.651 7022.48 619.922 7077.31 643.32 7148L938.771 7148C938.389 7139.3 938.151 7130.61 937.627 7121.93 935.745 7090.82 931.408 7060.44 917.136 7032.25Z" fill="#000200" fill-rule="nonzero" fill-opacity="1" transform="matrix(1 0 0 1.00014 -2934 -3320)"></path><path d="M6988.67 7047.48C6950.14 7085.6 6906.16 7116.86 6862.08 7148L7148 7148 7148 6771.54C7140.57 6785.83 7140.68 6801.89 7135.82 6816.81 7106.68 6906.52 7055.08 6981.67 6988.67 7047.48Z" fill="#00FF00" fill-rule="nonzero" fill-opacity="1" transform="matrix(1 0 0 1.00014 -2934 -3320)"></path><path d="M1539.01 4667.79 605.984 4667.79 9.38771 5384.02C21.0389 5388.78 27.353 5386.8 33.6194 5386.4 114.504 5381.94 195.608 5383.45 276.27 5390.93 435.766 5406.1 590.901 5441.46 742.558 5492.93 881.253 5539.96 1012.87 5602.94 1143.8 5667.7 1151.42 5671.46 1158.38 5677.23 1167.24 5677.23 1324.24 5536.65 1500.17 5429.26 1703.08 5365.77 1648 5131.52 1593.48 4899.52 1539.01 4667.79Z" fill="#00FF00" fill-rule="nonzero" fill-opacity="1" transform="matrix(1 0 0 1.00014 -2934 -3320)"></path><path d="M5844.68 4560.95C5850.09 4555.71 5850.83 4550.13 5852.09 4544.75 5861.9 4503.76 5866.21 4461.66 5864.91 4419.54 5863.39 4379.03 5860.76 4338.38 5846.13 4300.07 5817.54 4224.94 5761.26 4177.03 5689.4 4145.67 5607.73 4109.93 5521.28 4100.4 5433.29 4101.31 5324.57 4102.28 5218.54 4121.27 5114.25 4150.8 5000.6 4182.99 4891.95 4226.56 4793.81 4293.57 4700.52 4357.25 4623.73 4436.22 4570.26 4536.6 4566.4 4543.75 4559.71 4550.56 4562.26 4561.02Z" fill="#00FF00" fill-rule="nonzero" fill-opacity="1" transform="matrix(1 0 0 1.00014 -2934 -3320)"></path><path d="M1513.11 4557.42C1453.88 4305.12 1394.6 4052.7 1333.84 3794.02L697.478 4558.04C724.593 4564 1493.74 4563.21 1513.11 4557.42Z" fill="#00FF00" fill-rule="nonzero" fill-opacity="1" transform="matrix(1 0 0 1.00014 -2934 -3320)"></path><path d="M2140.9 5656.88C2017.93 5575.27 1884.07 5556.09 1742.16 5592.26 1635.63 5619.42 1546.21 5677.11 1467.75 5752.78 1450.14 5769.75 1433.13 5787.33 1416.21 5804.29 1420.97 5811.2 1426.45 5812.99 1431.29 5815.49 1515.3 5858.69 1599.6 5901.27 1685.81 5939.94 1770.63 5978.06 1856.43 6013.45 1947.23 6034.91 2001.54 6047.76 2056.34 6056.81 2112.33 6047.3 2191.58 6033.84 2245.38 5989.48 2269.16 5912.4 2283.74 5865.22 2273.4 5819.62 2251.07 5776.58 2225.22 5726.74 2187.29 5687.57 2140.9 5656.88Z" fill="#00FF00" fill-rule="nonzero" fill-opacity="1" transform="matrix(1 0 0 1.00014 -2934 -3320)"></path><path d="M2102.68 5367.34C2137.73 5380.32 2169.01 5396.95 2201.92 5417.09L2437.04 4668.57 1938.51 4668.57Z" fill="#00FF00" fill-rule="nonzero" fill-opacity="1" transform="matrix(1 0 0 1.00014 -2934 -3320)"></path><path d="M6291.86 4893.09 6291.62 4892.62C6291.41 4892.21 6290.79 4891.54 6290.64 4891.61 6289.14 4892.4 6289 4893.16 6290.19 4893.83 6290.86 4892.64 6291.5 4892.78 6291.86 4893.09Z" fill="#35FF13" fill-rule="nonzero" fill-opacity="1" transform="matrix(1 0 0 1.00014 -2934 -3320)"></path><path d="M6291.86 4893.09C6292.41 4894.04 6292.31 4893.45 6291.86 4893.09Z" fill="#35FF13" fill-rule="nonzero" fill-opacity="1" transform="matrix(1 0 0 1.00014 -2934 -3320)"></path><path d="M6290.67 4894 6290.67 4894C6290.56 4893.93 6290.45 4893.88 6290.33 4893.83L6290.33 4893.95 6290.98 4894.14Z" fill="#35FF13" fill-rule="nonzero" fill-opacity="1" transform="matrix(1 0 0 1.00014 -2934 -3320)"></path><path d="M621.519 6788.34 621.662 6788.34 621.328 6788.19Z" fill="#35FF13" fill-rule="nonzero" fill-opacity="1" transform="matrix(1 0 0 1.00014 -2934 -3320)"></path><path d="M621.352 6789.29C619.303 6788.88 620.971 6790.36 621.352 6789.29Z" fill="#35FF13" fill-rule="nonzero" fill-opacity="1" transform="matrix(1 0 0 1.00014 -2934 -3320)"></path><path d="M621.328 6788.22C621.193 6788.36 621.066 6788.51 620.947 6788.67L620.947 6788.67 621.447 6789.05C621.463 6789.15 621.463 6789.24 621.447 6789.34L621.733 6789.34 621.971 6789.34 623.997 6790.91 622.329 6789.1C622.329 6788.91 622.329 6788.72 621.876 6788.6L621.614 6788.31 621.471 6788.31C621.471 6788.31 621.352 6788.22 621.328 6788.22Z" fill="#35FF13" fill-rule="nonzero" fill-opacity="1" transform="matrix(1 0 0 1.00014 -2934 -3320)"></path><path d="M2291.48 6956.15 2637.61 6956.15C2653.79 6919.5 3121.96 5397.62 3122.53 5379.63L2778.55 5379.63C2616.19 5905.01 2453.84 6430.52 2291.48 6956.15Z" fill="#000200" fill-rule="nonzero" fill-opacity="1" transform="matrix(1 0 0 1.00014 -2934 -3320)"></path><path d="M3458.23 777.178C3467.21 782.658 3465.18 783.707 3475.95 774.915 3507.56 749.356 3546.86 735.188 3587.51 734.695 3598.37 734.695 3611.03 734.934 3611.03 734.195 3611.03 733.456 3592.61 697.716 3571.12 655.567 3500.66 517.134 3503.66 522.4 3492.49 516.562 3483.77 512.059 3475.29 512.75 3462.9 518.945 3451.08 524.649 3442.51 535.43 3439.62 548.228 3439.04 550.722 3438.73 553.269 3438.69 555.828L3438.69 744.202C3438.64 755.901 3449.48 771.984 3458.23 777.178Z" fill="#35FF13" fill-rule="nonzero" fill-opacity="1" transform="matrix(1 0 0 1.00014 -2934 -3320)"></path><path d="M4117.01 1319.14 4178.77 1319.14 4148.22 1257.38Z" fill="#00FF00" fill-rule="nonzero" fill-opacity="1" transform="matrix(1 0 0 1.00014 -2934 -3320)"></path><path d="M4766.43 1345.71 4714.3 1238.68 4688.56 1238.68 4688.56 1366.46C4694.71 1367.77 4700.02 1368.6 4704.98 1365.91L4704.98 1265.39C4704.98 1264.36 4704.84 1263.34 4704.74 1261.84L4706.77 1263.74 4757.57 1367.01C4763.98 1367.51 4769.48 1368.39 4775.44 1366.13 4791.71 1332.46 4808.1 1298.51 4824.49 1264.55L4827.21 1265.46 4827.21 1366.32C4833.41 1367.84 4838.7 1368.56 4843.89 1365.94L4843.89 1238.3 4818.9 1238.3C4801.72 1273.39 4784.61 1308.44 4766.43 1345.71Z" fill="#030B02" fill-rule="nonzero" fill-opacity="1" transform="matrix(1 0 0 1.00014 -2934 -3320)"></path><path d="M4705.48 1264.91 4704.98 1265.39C4705.31 1265.41 4705.43 1265.2 4705.48 1264.91Z" fill="#030B02" fill-rule="nonzero" fill-opacity="1" transform="matrix(1 0 0 1.00014 -2934 -3320)"></path><path d="M4475.96 1298.12C4484.39 1292.38 4490.11 1285.83 4491.11 1275.99 4493.19 1255.14 4481.25 1239.77 4457.75 1238.68 4425.42 1237.13 4392.97 1238.27 4359.83 1238.27L4359.83 1367.65C4396.62 1366.7 4432.62 1370.03 4468.41 1365.43 4486.56 1363.05 4497.24 1349.07 4497.57 1330.86 4497.9 1315.23 4490.14 1305.06 4475.96 1298.12ZM4378.63 1255.67C4381.58 1252.21 4385.39 1253.28 4388.8 1253.28 4410.24 1253.78 4431.69 1251.61 4452.89 1254.4 4465.88 1256.09 4471.48 1262.55 4471.19 1273.46 4470.91 1284.38 4464.24 1291.79 4452.13 1292.12 4428.04 1292.76 4403.93 1292.31 4378.53 1292.31ZM4459.64 1350.42C4448.75 1353.02 4437.6 1351.59 4426.57 1351.73 4410.89 1351.95 4395.21 1351.73 4378.91 1351.73L4378.91 1307.51C4391.09 1307.51 4403.17 1307.51 4415.25 1307.51 4429.54 1307.68 4443.84 1307.51 4457.85 1308.58 4470.45 1309.63 4477.15 1316.97 4477.94 1327.81 4478.72 1338.65 4471.96 1347.33 4459.54 1350.3Z" fill="#030B02" fill-rule="nonzero" fill-opacity="1" transform="matrix(1 0 0 1.00014 -2934 -3320)"></path><path d="M3718.46 1367.2C3723.46 1367.2 3727.99 1368.6 3732.76 1366.27L3732.76 1299.55 3661.01 1299.55C3660.51 1304.91 3659.16 1309.56 3663.09 1315.21L3716.58 1315.21C3716.15 1328.38 3709.74 1336.49 3700.78 1342.97 3681.58 1356.81 3651.06 1357.93 3631.06 1345.21 3612.5 1333.29 3605.05 1315.78 3607.41 1294.55 3609.79 1274.04 3622.32 1260.79 3641.72 1254.9 3669.64 1246.44 3695.02 1250.3 3715.39 1274.44 3720.96 1272.34 3727.42 1272.56 3732.26 1267.72 3728.16 1258.67 3721.34 1252.76 3713.62 1247.8 3693.54 1234.98 3671.26 1233.03 3648.39 1235.67 3614.41 1239.61 3588.82 1265.05 3586.68 1296 3584.44 1330.2 3605.14 1359.45 3638.12 1367.48 3665.66 1374.13 3691.58 1370.13 3714.82 1353.19 3715.22 1353.08 3715.65 1353.08 3716.05 1353.19L3717.34 1353.19C3717.15 1353.78 3716.96 1354.38 3716.79 1355 3717.34 1358.83 3717.84 1362.65 3718.46 1367.2Z" fill="#030B02" fill-rule="nonzero" fill-opacity="1" transform="matrix(1 0 0 1.00014 -2934 -3320)"></path><path d="M2975.47 1270.22C2973.54 1252.62 2960.84 1239.25 2941.14 1238.58 2907.54 1237.41 2873.85 1238.27 2839.88 1238.27L2839.88 1367.13 2858.32 1367.13 2858.32 1316.54 2920.72 1316.54 2963.61 1366.58 2988.55 1366.58 2942.31 1313.37C2969.35 1304.56 2977.95 1292.86 2975.47 1270.22ZM2858.72 1299.29 2858.72 1254.5C2885.96 1253.93 2912.71 1253.09 2939.45 1254.95 2948.86 1255.59 2953.74 1262.93 2955.53 1271.63 2957.8 1280.34 2954.2 1289.51 2946.62 1294.36 2942.79 1297.24 2938.18 1298.9 2933.4 1299.13 2908.85 1299.41 2884.38 1299.29 2858.63 1299.29Z" fill="#030B02" fill-rule="nonzero" fill-opacity="1" transform="matrix(1 0 0 1.00014 -2934 -3320)"></path><path d="M2521.91 1350.66 2521.91 1308.44 2618.55 1308.44C2620.83 1303.16 2620.75 1297.15 2618.34 1291.93L2522.08 1291.93 2522.08 1254.14 2621.27 1254.14C2622.82 1248.21 2623.65 1243.35 2620.96 1238.49L2503.04 1238.49 2503.04 1366.75 2625.94 1366.75C2627.76 1361.55 2627.8 1355.89 2626.06 1350.66Z" fill="#030B02" fill-rule="nonzero" fill-opacity="1" transform="matrix(1 0 0 1.00014 -2934 -3320)"></path><path d="M4004.02 1350.59 3899.97 1350.59 3899.97 1308.39 3996.23 1308.39C3998.29 1303.13 3998.35 1297.31 3996.42 1292L3899.5 1292C3899.35 1278.78 3898.35 1267.13 3900.23 1254.4L3999.64 1254.4C3999.95 1248.33 4001.26 1243.42 3998.85 1238.61L3880.62 1238.61 3880.62 1366.67 4005.12 1366.67C4005.48 1361.27 4006.53 1356.67 4004.02 1350.59Z" fill="#030B02" fill-rule="nonzero" fill-opacity="1" transform="matrix(1 0 0 1.00014 -2934 -3320)"></path><path d="M3139.93 1298.1C3138.57 1266.58 3119.39 1242.13 3088.82 1239.2 3061.06 1236.56 3032.82 1238.65 3004.23 1238.65L3004.23 1367.65C3034.85 1366.29 3065.01 1370.91 3094.58 1363.36 3124.15 1355.81 3141.31 1330.15 3139.93 1298.1ZM3023.39 1350.97 3023.39 1254.45C3044.83 1254.05 3065.97 1252.21 3086.65 1255.26 3107.33 1258.31 3120.32 1277.4 3120.17 1301.87 3120.03 1326.34 3106.14 1344.61 3083.46 1348.97 3063.89 1352.74 3044.12 1351.45 3023.39 1350.97Z" fill="#030B02" fill-rule="nonzero" fill-opacity="1" transform="matrix(1 0 0 1.00014 -2934 -3320)"></path><path d="M3320.84 1346.52C3316.78 1348.96 3312.35 1350.7 3307.71 1351.69 3279.12 1357.19 3252.63 1353.62 3229.97 1333.65L3213.86 1340.8C3215.41 1343.29 3217.11 1345.67 3218.96 1347.95 3232.49 1362.24 3250.27 1367.29 3268.99 1369.39 3289.68 1371.77 3310.29 1371.61 3329.47 1362.24 3345.07 1354.67 3352.39 1340.18 3350.48 1323.31 3348.84 1309.01 3338.57 1298.79 3321.44 1294.72 3316.82 1293.63 3312.14 1292.83 3307.43 1292.33 3291.27 1290.6 3275.07 1289.43 3258.99 1287.26 3250.86 1286.16 3243.38 1282.49 3242.45 1272.96 3241.57 1263.79 3247.22 1258.36 3255.03 1255.02 3257.97 1253.83 3261.01 1252.92 3264.11 1252.31 3289.37 1247.18 3312.88 1250.35 3332.75 1267.7L3348.53 1261C3345.97 1255.16 3341.51 1250.35 3335.88 1247.35 3305.09 1230.17 3273.14 1230.03 3241.17 1243.01 3227.77 1248.45 3222.1 1260.19 3223.08 1274.68 3224.2 1291.36 3236.21 1301.44 3257.49 1304.22 3276.69 1306.75 3296.25 1306.46 3315.22 1310.94 3323.41 1312.87 3330.3 1316.69 3331.56 1325.81 3332.83 1334.94 3328.59 1341.97 3320.84 1346.52Z" fill="#030B02" fill-rule="nonzero" fill-opacity="1" transform="matrix(1 0 0 1.00014 -2934 -3320)"></path><path d="M3544.05 1343.01 3444.64 1238.39 3425.23 1238.39 3425.23 1366.86C3431.23 1367.6 3436.28 1368.25 3442.6 1366.05L3442.6 1261.65 3544.36 1368.13C3550.34 1366.44 3556.03 1369.29 3560.87 1365.74L3560.87 1238.51C3554.91 1237.96 3549.86 1237.06 3544.05 1239.39Z" fill="#030B02" fill-rule="nonzero" fill-opacity="1" transform="matrix(1 0 0 1.00014 -2934 -3320)"></path><path d="M4137.79 1238.77C4115.77 1281.04 4093.68 1323.43 4071.07 1366.96L4092.35 1366.96 4108.86 1335.65 4186.73 1335.65C4194.23 1345.68 4196.88 1358.14 4204.55 1367.05L4225.64 1367.05 4159.28 1238.39C4152.14 1237.43 4144.89 1237.55 4137.79 1238.77ZM4117.01 1319.14 4147.98 1257.38 4178.65 1319.14Z" fill="#030B02" fill-rule="nonzero" fill-opacity="1" transform="matrix(1 0 0 1.00014 -2934 -3320)"></path><path d="M4637.43 1239.32C4637.43 1266.17 4637.57 1293.24 4637.43 1320.33 4637.43 1336.75 4630.28 1346.21 4614.61 1350.73 4602.78 1354.24 4590.31 1355 4578.15 1352.95 4550.54 1348.18 4542.41 1338.65 4542.41 1310.9 4542.41 1287.07 4542.41 1263.19 4542.41 1239.27 4535.88 1237.25 4530.5 1237.89 4523.83 1238.65 4523.83 1268.56 4523.09 1297.62 4524.11 1326.62 4524.76 1344.87 4536.03 1357.05 4552.87 1363.62 4577.85 1373.5 4605.69 1373.24 4630.47 1362.91 4645.7 1356.9 4655.25 1344.66 4655.87 1328.62 4657.02 1298.82 4656.21 1268.94 4656.21 1238.46 4650.2 1238.03 4644.44 1237.06 4637.43 1239.32Z" fill="#030B02" fill-rule="nonzero" fill-opacity="1" transform="matrix(1 0 0 1.00014 -2934 -3320)"></path><path d="M2791.44 1299.89C2805.3 1291.52 2810.5 1280.61 2807.07 1266.27 2803.42 1251.3 2791.91 1244.66 2778.48 1240.99 2764.99 1237.39 2750.79 1237.39 2737.3 1240.99 2720.1 1245.44 2709.83 1257.5 2708.45 1274.75L2722.98 1277.68C2733.61 1255.76 2752.48 1247.78 2773.61 1256 2783.15 1259.67 2788.72 1266.32 2788.15 1276.68 2787.58 1286.66 2780.52 1290.98 2771.64 1292.43 2762.75 1293.88 2753.77 1294.34 2744.67 1295.22 2743.15 1299.83 2743.67 1304.87 2746.09 1309.08 2754.2 1309.08 2762.77 1308.61 2771.52 1309.2 2784.55 1310.11 2792.34 1317.28 2793.53 1328.27 2794.65 1338.53 2787.6 1347.92 2775.88 1351.83 2751.5 1359.93 2733.13 1352.76 2718.12 1329.15 2712.9 1330.27 2707.16 1329.93 2702.61 1334.13 2706.61 1351.66 2717.29 1362.72 2734.73 1366.79 2754.01 1371.25 2773.33 1371.96 2791.77 1363.34 2810.21 1354.71 2817.98 1335.32 2810.83 1317.95 2807.31 1309.66 2800.44 1304.53 2791.44 1299.89Z" fill="#030B02" fill-rule="nonzero" fill-opacity="1" transform="matrix(1 0 0 1.00014 -2934 -3320)"></path><path d="M2416.93 1345.21 2365.99 1238.3 2344.69 1238.3C2366.13 1282.4 2386.55 1324.83 2406.95 1366.96L2426.29 1366.96 2487.34 1238.3 2466.25 1238.3C2450.12 1273.32 2434.04 1308.08 2416.93 1345.21Z" fill="#030B02" fill-rule="nonzero" fill-opacity="1" transform="matrix(1 0 0 1.00014 -2934 -3320)"></path><path d="M3780.89 1238.99C3774.85 1237.57 3768.59 1237.48 3762.52 1238.7L3762.52 1366.7 3866.07 1366.7C3866.92 1360.96 3868.31 1356 3864.47 1350.28L3780.89 1350.28Z" fill="#030B02" fill-rule="nonzero" fill-opacity="1" transform="matrix(1 0 0 1.00014 -2934 -3320)"></path><path d="M4259.04 1350.52 4259.04 1237.72C4251.89 1238.7 4246.15 1236.46 4241 1239.15L4241 1367.05 4343.82 1367.05C4345.79 1361.72 4345.79 1355.85 4343.82 1350.52Z" fill="#030B02" fill-rule="nonzero" fill-opacity="1" transform="matrix(1 0 0 1.00014 -2934 -3320)"></path><path d="M3375.76 1366.6C3381.54 1367.83 3387.52 1367.83 3393.3 1366.6L3393.3 1238.7C3386.87 1237.77 3381.15 1237.18 3375.76 1238.94Z" fill="#030B02" fill-rule="nonzero" fill-opacity="1" transform="matrix(1 0 0 1.00014 -2934 -3320)"></path><path d="M2311.66 1238.99 2311.66 1366.94C2318.05 1367.51 2323.46 1368.41 2329.15 1366.2L2329.15 1238.46C2322.74 1237.91 2317.29 1237.15 2311.66 1238.99Z" fill="#030B02" fill-rule="nonzero" fill-opacity="1" transform="matrix(1 0 0 1.00014 -2934 -3320)"></path><path d="M4704.98 1265.39 4705.48 1264.91 4706.77 1263.74 4704.74 1261.84C4704.84 1263.34 4704.91 1264.36 4704.98 1265.39Z" fill="#35FB13" fill-rule="nonzero" fill-opacity="1" transform="matrix(1 0 0 1.00014 -2934 -3320)"></path><path d="M3716.1 1353.12C3715.7 1353.01 3715.27 1353.01 3714.86 1353.12L3716.84 1355.09C3717.01 1354.47 3717.2 1353.88 3717.39 1353.28Z" fill="#35FB13" fill-rule="nonzero" fill-opacity="1" transform="matrix(1 0 0 1.00014 -2934 -3320)"></path><path d="M3087.94 1533.53 3087.94 1590.95 4066.97 1590.95C4067.21 1586.52 4067.55 1583 4067.55 1579.45 4067.55 1564.32 4067.55 1549.19 4067.55 1533.53ZM3249.24 1585.52 3094.68 1585.52 3094.68 1538.87 3249.24 1538.87ZM3412.03 1585.66 3256.7 1585.66 3256.7 1539.32 3411.98 1539.32ZM3573.86 1585.81 3419.65 1585.81 3419.65 1539.01 3573.86 1539.01ZM3735.88 1585.14 3581.46 1585.14 3581.46 1539.35 3735.88 1539.35ZM3898.35 1585.14 3743.48 1585.14 3743.48 1539.42 3898.35 1539.42ZM4060.37 1585.52 3906.17 1585.52 3906.17 1539.01 4060.37 1539.01Z" fill="#080D08" fill-rule="nonzero" fill-opacity="1" transform="matrix(1 0 0 1.00014 -2934 -3320)"></path><path d="M3256.6 1585.66 3411.98 1585.66 3411.98 1539.32 3256.65 1539.32Z" fill="#01F8F8" fill-rule="nonzero" fill-opacity="1" transform="matrix(1 0 0 1.00014 -2934 -3320)"></path><path d="M3419.56 1585.81 3573.76 1585.81 3573.76 1539.01 3419.56 1539.01Z" fill="#F302F2" fill-rule="nonzero" fill-opacity="1" transform="matrix(1 0 0 1.00014 -2934 -3320)"></path><path d="M3906.29 1585.62 4060.49 1585.62 4060.49 1539.01 3906.29 1539.01Z" fill="#0C00F3" fill-rule="nonzero" fill-opacity="1" transform="matrix(1 0 0 1.00014 -2934 -3320)"></path><path d="M3581.46 1585.14 3735.88 1585.14 3735.88 1539.35 3581.46 1539.35Z" fill="#00FF00" fill-rule="nonzero" fill-opacity="1" transform="matrix(1 0 0 1.00014 -2934 -3320)"></path><path d="M3743.6 1585.24 3898.47 1585.24 3898.47 1539.42 3743.6 1539.42Z" fill="#F30200" fill-rule="nonzero" fill-opacity="1" transform="matrix(1 0 0 1.00014 -2934 -3320)"></path><path d="M3094.58 1585.52 3249.15 1585.52 3249.15 1538.87 3094.58 1538.87Z" fill="#F7F701" fill-rule="nonzero" fill-opacity="1" transform="matrix(1 0 0 1.00014 -2934 -3320)"></path><path d="M3457.37 790.855C3454.73 795.32 3451.67 799.517 3448.22 803.388 3436.64 817.255 3425.56 838.889 3419.79 857.831 3413.15 879.633 3413.12 913.919 3419.79 935.34 3431.1 971.409 3456.69 1001.27 3490.61 1017.97 3513.58 1029.1 3526.35 1032.27 3552.13 1033.96L3552.13 1033.96C3598.49 1036.96 3638.43 1025.07 3674.29 998.504 3707.02 974.225 3730.45 939.247 3738.62 902.292 3740.14 895.478 3741 888.973 3740.21 888.735L3694.94 875.94C3693.97 875.654 3695.42 880.371 3696.47 884.946 3699.57 898.265 3698.85 929.145 3695.02 943.75 3680.41 1000.12 3628.9 1027.95 3570.5 1011.04 3543.36 1003.17 3514.67 984.399 3514.67 974.487 3514.67 972.104 3538.16 939.962 3567.09 902.84 3596.02 865.718 3647.96 799.289 3682.65 754.829 3717.34 710.368 3759.85 656.425 3776.53 634.957 3814.98 585.755 3817.51 581.514 3817.34 559.903 3817.2 542.152 3813.01 531.906 3801.71 518.23 3789.23 503.1 3762.92 494.57 3739.09 501.289 3729.42 504.005 3722.11 508.437 3713.12 517.372 3705.71 525.079 3698.79 533.252 3692.42 541.842 3670.02 570.863 3619.72 635.219 3618.29 636.649 3616.86 638.078 3563.66 531.811 3563.61 527.522 3564.08 524.049 3565.77 520.857 3568.38 518.516 3572.17 515.966 3573.86 513.751 3583.41 513.751L3596.8 513.751 3596.8 506.722 3374.83 506.722 3394.42 497.548C3425.54 482.99 3446.1 458.401 3449.89 435.051 3453.82 410.772 3437.66 390.662 3413.07 390.471 3395.2 390.328 3381.15 402.146 3376.88 420.183 3372.74 437.72 3384.67 458.473 3402.57 463.071 3407.88 464.453 3412.96 464.501 3412.96 465.287 3410.63 470.094 3407.62 474.539 3404.02 478.487 3393.3 490.663 3365.47 505.459 3345.05 505.268L3339.66 505.268 3339.66 513.893 3348.6 513.893C3362.23 513.893 3377.19 525.092 3383.67 537.72 3386.38 542.548 3387.96 547.923 3388.29 553.446L3388.29 744.631C3388.18 751.528 3386.13 758.255 3382.39 764.05 3375.49 774.652 3364.23 781.637 3351.67 783.111 3350.6 783.31 3349.52 783.429 3348.43 783.468L3339.5 783.468 3339.5 790.616 3457.25 790.616ZM3659.08 595.476C3692.01 552.898 3695.33 549.371 3707.64 543.772 3752.22 523.543 3800.88 570.577 3780.89 614.633 3777.12 622.901 3724.39 692.427 3696.16 726.356 3685.46 739.222 3679.96 741.7 3670.59 737.912 3666.92 736.435 3631.14 664.955 3629.35 655.567 3626.59 640.937 3631.42 631.192 3659.08 595.428ZM3638.95 794.429C3638.95 798.694 3623.04 820.638 3580.08 875.582 3547.72 917.017 3518.65 953.638 3515.46 956.998 3502.97 970.15 3491.63 961.763 3473.98 925.714 3454.03 885.351 3451.82 839.699 3468.14 805.961 3484.2 773.568 3517.12 752.966 3553.27 752.684 3586.18 752.756 3639.05 778.512 3638.95 794.381ZM3438.57 555.828C3438.61 553.269 3438.93 550.722 3439.5 548.228 3442.39 535.43 3450.96 524.649 3462.78 518.945 3475.17 512.726 3483.65 512.035 3492.37 516.562 3503.66 522.4 3500.66 517.134 3571 655.567 3592.44 697.788 3610.91 733.552 3610.91 734.195 3610.91 734.838 3598.26 734.695 3587.39 734.695 3546.74 735.188 3507.44 749.356 3475.83 774.915 3465.06 783.707 3467.09 782.658 3458.11 777.178 3449.12 771.698 3438.52 755.901 3438.45 744.154Z" fill="#000000" fill-rule="nonzero" fill-opacity="1" transform="matrix(1 0 0 1.00014 -2934 -3320)"></path></g></svg>