<svg xmlns="http://www.w3.org/2000/svg" width="67.925" height="58.293"><defs><clipPath id="a"><path data-name="사각형 25911" fill="#898989" d="M0 0h67.925v58.293H0z"/></clipPath></defs><g data-name="그룹 24343"><path data-name="패스 5855" d="m12.447 17.82-3.651 8.388h2.5l.622-1.564h3.868l.633 1.564h2.574l-3.655-8.388Zm.2 4.957 1.209-3.008 1.211 3.008Z" fill="#898989"/><g data-name="그룹 24342"><g data-name="그룹 24341" clip-path="url(#a)" fill="#898989"><path data-name="패스 5856" d="M24.02 17.82h-3.947v8.388h3.83a6.046 6.046 0 0 0 3.866-1.091 3.75 3.75 0 0 0 1.363-3.1 3.806 3.806 0 0 0-1.3-3.13 5.9 5.9 0 0 0-3.814-1.064m-.057 6.415h-1.445v-4.444h1.553q2.549 0 2.549 2.21 0 2.231-2.655 2.231"/><path data-name="패스 5857" d="M66.7 24.84a12.407 12.407 0 0 0-11.171-7.02H41.524a12.425 12.425 0 0 0-2.731.323v-2.4a12.4 12.4 0 0 0-12.4-12.4h-14a12.273 12.273 0 0 0-7.933 2.95A12.426 12.426 0 0 0 0 15.74v14a12.393 12.393 0 0 0 12.4 12.4h14a12.386 12.386 0 0 0 2.731-.323v2.4a12.548 12.548 0 0 0 12.4 12.4h13.998a12.31 12.31 0 0 0 9.52-4.547 12.861 12.861 0 0 0 1.194-1.71 12.08 12.08 0 0 0 1.68-6.138v-14A12.33 12.33 0 0 0 66.7 24.84m-30.621-5.709a12.16 12.16 0 0 0-6.95 11.082v8.771a9.566 9.566 0 0 1-2.731.44h-14a9.692 9.692 0 0 1-9.683-9.681v-14A9.691 9.691 0 0 1 12.4 6.06h14a9.691 9.691 0 0 1 9.681 9.681Zm17.89 22.407H51.8v-4.674l-2.08 4.674h-1.729l-2.079-4.653v4.653h-2.137v-8.025h2.666l2.46 5.462 2.45-5.462h2.617Z"/><path data-name="패스 5858" d="M25.513 55.579a18.338 18.338 0 0 1-15.186-8.478c-.926-1.477-3.274-.117-2.343 1.371a21.145 21.145 0 0 0 17.529 9.822 1.358 1.358 0 0 0 0-2.715"/><path data-name="패스 5859" d="M41.823 2.716a18.338 18.338 0 0 1 15.186 8.478c.926 1.477 3.274.117 2.343-1.371A21.139 21.139 0 0 0 41.823.001a1.358 1.358 0 0 0 0 2.715"/></g></g></g></svg>