<svg data-name="그룹 24311" xmlns="http://www.w3.org/2000/svg" width="70.85" height="56.998"><defs><clipPath id="a"><path data-name="사각형 25899" fill="#898989" d="M0 0h70.85v56.998H0z"/></clipPath></defs><g data-name="그룹 24310" clip-path="url(#a)" fill="#898989"><path data-name="패스 5795" d="M60.581 18.459a9.562 9.562 0 1 0-4.795.5l-9.13 9.918a5.415 5.415 0 0 0 .217-.647 5.666 5.666 0 0 0-8.529-6.057l-2.921 1.829-2.923-1.826a5.666 5.666 0 0 0-8.529 6.057 6.164 6.164 0 0 0 .217.644l-9.124-9.915a9.542 9.542 0 1 0-4.795-.5C3.626 19.802 0 25.321 0 34.363v21.174a1.465 1.465 0 0 0 2.929 0V34.363c0-8.573 3.389-13.046 10.082-13.306l11.1 12.056a1.467 1.467 0 0 0 1.854.252l1.552-.969 5.053 3.014-11.59 6.921a1.461 1.461 0 0 0-.507 2v.009a1.467 1.467 0 0 0 2.009.507l2.329-1.391v12.081a1.465 1.465 0 0 0 2.929 0V41.702l7.686-4.587 7.683 4.587v13.835a1.465 1.465 0 1 0 2.929 0V43.452l2.331 1.391a1.464 1.464 0 0 0 2.006-.507v-.009a1.463 1.463 0 0 0-.507-2l-11.59-6.918-1.429-.852-1.426-.855-5.117-3.055-1.414-.845-.794-.474a3.712 3.712 0 0 1-1.265-1.746 2.737 2.737 0 0 1 4.121-2.926l1.708 1.066 1.382.864 1.38.864 5.12 3.2 1.394.873 1.4.873 1.552.969a1.468 1.468 0 0 0 1.854-.252l11.1-12.056c6.693.261 10.085 4.733 10.085 13.306v21.174a1.465 1.465 0 0 0 2.929 0V34.363c0-9.042-3.626-14.557-10.269-15.9M7.018 9.554a6.624 6.624 0 1 1 6.622 6.622 6.629 6.629 0 0 1-6.622-6.622m37 18.031a2.666 2.666 0 0 1-.776 1.3l-5.053-3.157 1.711-1.069a2.739 2.739 0 0 1 4.121 2.926m13.185-11.408a6.622 6.622 0 1 1 6.622-6.622 6.629 6.629 0 0 1-6.622 6.622"/><path data-name="패스 5796" d="M38.352 48.522h-5.548a1.465 1.465 0 0 0-1.464 1.465v5.548A1.465 1.465 0 0 0 32.805 57h5.548a1.465 1.465 0 0 0 1.465-1.465v-5.548a1.465 1.465 0 0 0-1.465-1.465"/></g></svg>